<?xml version="1.0" encoding="UTF-8" standalone="no"?>
<!-- Created with Inkscape (http://www.inkscape.org/) -->

<svg
   width="500mm"
   height="220mm"
   viewBox="0 0 500 220"
   version="1.1"
   id="svg5"
   xml:space="preserve"
   inkscape:version="1.2.2 (b0a84865, 2022-12-01)"
   sodipodi:docname="LASERCUTTING_VIBSPEAKER.svg"
   xmlns:inkscape="http://www.inkscape.org/namespaces/inkscape"
   xmlns:sodipodi="http://sodipodi.sourceforge.net/DTD/sodipodi-0.dtd"
   xmlns="http://www.w3.org/2000/svg"
   xmlns:svg="http://www.w3.org/2000/svg"><sodipodi:namedview
     id="namedview7"
     pagecolor="#505050"
     bordercolor="#eeeeee"
     borderopacity="1"
     inkscape:showpageshadow="0"
     inkscape:pageopacity="0"
     inkscape:pagecheckerboard="0"
     inkscape:deskcolor="#505050"
     inkscape:document-units="mm"
     showgrid="false"
     inkscape:zoom="0.45117828"
     inkscape:cx="971.89962"
     inkscape:cy="554.10468"
     inkscape:window-width="1440"
     inkscape:window-height="834"
     inkscape:window-x="0"
     inkscape:window-y="25"
     inkscape:window-maximized="0"
     inkscape:current-layer="g133" /><defs
     id="defs2"><marker
       id="DistanceX"
       orient="auto"
       refX="0"
       refY="0"
       style="overflow:visible"><path
         d="M 3,-3 -3,3 M 0,-5 V 5"
         style="stroke:#000000;stroke-width:0.5"
         id="path71" /></marker><pattern
       id="Hatch"
       patternUnits="userSpaceOnUse"
       width="8"
       height="8"
       x="0"
       y="0"><path
         d="M8 4 l-4,4"
         stroke="#000000"
         stroke-width="0.25"
         linecap="square"
         id="path74" /><path
         d="M6 2 l-4,4"
         stroke="#000000"
         stroke-width="0.25"
         linecap="square"
         id="path76" /><path
         d="M4 0 l-4,4"
         stroke="#000000"
         stroke-width="0.25"
         linecap="square"
         id="path78" /></pattern><symbol
       id="*MODEL_SPACE" /><symbol
       id="*PAPER_SPACE" /><marker
       id="DistanceX-7"
       orient="auto"
       refX="0"
       refY="0"
       style="overflow:visible"><path
         d="M 3,-3 -3,3 M 0,-5 V 5"
         style="stroke:#000000;stroke-width:0.5"
         id="path362" /></marker><pattern
       id="Hatch-8"
       patternUnits="userSpaceOnUse"
       width="8"
       height="8"
       x="0"
       y="0"><path
         d="M8 4 l-4,4"
         stroke="#000000"
         stroke-width="0.25"
         linecap="square"
         id="path365" /><path
         d="M6 2 l-4,4"
         stroke="#000000"
         stroke-width="0.25"
         linecap="square"
         id="path367" /><path
         d="M4 0 l-4,4"
         stroke="#000000"
         stroke-width="0.25"
         linecap="square"
         id="path369" /></pattern><symbol
       id="*MODEL_SPACE-8" /><symbol
       id="*PAPER_SPACE-3" /></defs><g
     inkscape:label="Calque 1"
     inkscape:groupmode="layer"
     id="layer1"><g
       inkscape:label="0"
       id="g133"
       transform="matrix(0.26458333,0,0,0.26458333,190.37214,-187)"
       style="stroke-width:0.37795276;stroke-dasharray:none"><path
         d="m -689.76378,1122.5197 a 689.76378,377.95276 -180 0 0 1379.52756,0 689.76378,377.95276 -180 0 0 -1379.52756,0 z"
         style="fill:none;stroke:#ff0000;stroke-width:0.37795276;stroke-dasharray:none;stroke-opacity:1"
         id="path85" /><path
         d="m 460.15748,1311.4961 a 6.614175,6.614175 0 0 0 -13.22835,0 6.614175,6.614175 0 0 0 13.22835,0 z"
         style="fill:none;stroke:#ff0000;stroke-width:0.37795276;stroke-dasharray:none;stroke-opacity:1"
         id="path87" /><path
         d="m 6.614173,1235.9055 a 6.614173,6.614173 0 0 0 -13.228346,0 6.614173,6.614173 0 0 0 13.228346,0 z"
         style="fill:none;stroke:#ff0000;stroke-width:0.37795276;stroke-dasharray:none;stroke-opacity:1"
         id="path89" /><path
         d="m 6.614173,1009.1339 a 6.614173,6.614173 0 0 0 -13.228346,0 6.614173,6.614173 0 0 0 13.228346,0 z"
         style="fill:none;stroke:#ff0000;stroke-width:0.37795276;stroke-dasharray:none;stroke-opacity:1"
         id="path91" /><path
         d="m -446.92913,1311.4961 a 6.614175,6.614175 0 0 0 -13.22835,0 6.614175,6.614175 0 0 0 13.22835,0 z"
         style="fill:none;stroke:#ff0000;stroke-width:0.37795276;stroke-dasharray:none;stroke-opacity:1"
         id="path93" /><path
         d="m -446.92913,933.54331 a 6.614175,6.614175 0 0 0 -13.22835,0 6.614175,6.614175 0 0 0 13.22835,0 z"
         style="fill:none;stroke:#ff0000;stroke-width:0.37795276;stroke-dasharray:none;stroke-opacity:1"
         id="path95" /><path
         d="m 460.15748,933.54331 a 6.614175,6.614175 0 0 0 -13.22835,0 6.614175,6.614175 0 0 0 13.22835,0 z"
         style="fill:none;stroke:#ff0000;stroke-width:0.37795276;stroke-dasharray:none;stroke-opacity:1"
         id="path97" /><path
         d="m 404.40945,1122.5197 a 7.559055,7.559055 0 0 0 -15.11811,0 7.559055,7.559055 0 0 0 15.11811,0 z"
         style="fill:none;stroke:#ff0000;stroke-width:0.37795276;stroke-dasharray:none;stroke-opacity:1"
         id="path99" /><path
         d="m 139.84252,1122.5197 a 7.5590555,7.5590555 0 0 0 -15.11811,0 7.5590555,7.5590555 0 0 0 15.11811,0 z"
         style="fill:none;stroke:#ff0000;stroke-width:0.37795276;stroke-dasharray:none;stroke-opacity:1"
         id="path101" /><path
         d="m 139.84265,1387.0866 a 7.559055,7.559055 0 0 0 -15.11811,0 7.559055,7.559055 0 0 0 15.11811,0 z"
         style="fill:none;stroke:#ff0000;stroke-width:0.37795276;stroke-dasharray:none;stroke-opacity:1"
         id="path103" /><path
         d="m -124.72454,1387.0866 a 7.559055,7.559055 0 0 0 -15.11811,0 7.559055,7.559055 0 0 0 15.11811,0 z"
         style="fill:none;stroke:#ff0000;stroke-width:0.37795276;stroke-dasharray:none;stroke-opacity:1"
         id="path105" /><path
         d="m -124.72441,1122.5197 a 7.5590555,7.5590555 0 0 0 -15.11811,0 7.5590555,7.5590555 0 0 0 15.11811,0 z"
         style="fill:none;stroke:#ff0000;stroke-width:0.37795276;stroke-dasharray:none;stroke-opacity:1"
         id="path107" /><path
         d="m -389.29134,1122.5197 a 7.559055,7.559055 0 0 0 -15.11811,0 7.559055,7.559055 0 0 0 15.11811,0 z"
         style="fill:none;stroke:#ff0000;stroke-width:0.37795276;stroke-dasharray:none;stroke-opacity:1"
         id="path109" /><path
         d="m -124.72454,857.95276 a 7.559055,7.559055 0 0 0 -15.11811,0 7.559055,7.559055 0 0 0 15.11811,0 z"
         style="fill:none;stroke:#ff0000;stroke-width:0.37795276;stroke-dasharray:none;stroke-opacity:1"
         id="path111" /><path
         d="m 139.84265,857.95276 a 7.559055,7.559055 0 0 0 -15.11811,0 7.559055,7.559055 0 0 0 15.11811,0 z"
         style="fill:none;stroke:#ff0000;stroke-width:0.37795276;stroke-dasharray:none;stroke-opacity:1"
         id="path113" /><path
         d="m -689.76378,1122.5197 a 689.76378,377.95276 -180 0 0 1379.52756,0 689.76378,377.95276 -180 0 0 -1379.52756,0 z"
         style="fill:none;stroke:#ff0000;stroke-width:0.37795276;stroke-dasharray:none;stroke-opacity:1"
         id="path115" /><path
         d="m 449.76378,1122.5197 a 52.913386,52.913386 0 0 0 -105.82677,0 52.913386,52.913386 0 0 0 105.82677,0 z"
         style="fill:none;stroke:#0000ff;stroke-width:0.37795276;stroke-dasharray:none;stroke-opacity:1"
         id="path117" /><path
         d="m 185.19685,1122.5197 a 52.913386,52.913386 0 0 0 -105.826771,0 52.913386,52.913386 0 0 0 105.826771,0 z"
         style="fill:none;stroke:#0000ff;stroke-width:0.37795276;stroke-dasharray:none;stroke-opacity:1"
         id="path119" /><path
         d="m 185.19698,857.95276 a 52.913386,52.913386 0 0 0 -105.826772,0 52.913386,52.913386 0 0 0 105.826772,0 z"
         style="fill:none;stroke:#0000ff;stroke-width:0.37795276;stroke-dasharray:none;stroke-opacity:1"
         id="path121" /><path
         d="m -79.370208,857.95276 a 52.913386,52.913386 0 0 0 -105.826772,0 52.913386,52.913386 0 0 0 105.826772,0 z"
         style="fill:none;stroke:#0000ff;stroke-width:0.37795276;stroke-dasharray:none;stroke-opacity:1"
         id="path123" /><path
         d="m 185.19698,1387.0866 a 52.913386,52.913386 0 0 0 -105.826772,0 52.913386,52.913386 0 0 0 105.826772,0 z"
         style="fill:none;stroke:#0000ff;stroke-width:0.37795276;stroke-dasharray:none;stroke-opacity:1"
         id="path125" /><path
         d="m -79.370208,1387.0866 a 52.913386,52.913386 0 0 0 -105.826772,0 52.913386,52.913386 0 0 0 105.826772,0 z"
         style="fill:none;stroke:#0000ff;stroke-width:0.37795276;stroke-dasharray:none;stroke-opacity:1"
         id="path127" /><path
         d="m -79.370079,1122.5197 a 52.913386,52.913386 0 0 0 -105.826771,0 52.913386,52.913386 0 0 0 105.826771,0 z"
         style="fill:none;stroke:#0000ff;stroke-width:0.37795276;stroke-dasharray:none;stroke-opacity:1"
         id="path129" /><path
         d="m -343.93701,1122.5197 a 52.913386,52.913386 0 0 0 -105.82677,0 52.913386,52.913386 0 0 0 105.82677,0 z"
         style="fill:none;stroke:#0000ff;stroke-width:0.37795276;stroke-dasharray:none;stroke-opacity:1"
         id="path131" /></g><g
       inkscape:label="0"
       id="g432"
       transform="matrix(0.26458333,0,0,0.26458333,422.93308,-237.21037)"
       style="stroke:#ff0000;stroke-width:0.377953;stroke-dasharray:none;stroke-opacity:1"><path
         style="fill:none;stroke:#ff0000;stroke-width:0.377953;stroke-dasharray:none;stroke-opacity:1"
         d="m -213.533,1051.69 h -38.063"
         id="path376" /><path
         style="fill:none;stroke:#ff0000;stroke-width:0.377953;stroke-dasharray:none;stroke-opacity:1"
         d="m -251.596,1051.69 v 15.11"
         id="path378" /><path
         style="fill:none;stroke:#ff0000;stroke-width:0.377953;stroke-dasharray:none;stroke-opacity:1"
         d="m 251.596,1066.8 v -15.11"
         id="path382" /><path
         style="fill:none;stroke:#ff0000;stroke-width:0.377953;stroke-dasharray:none;stroke-opacity:1"
         d="M 251.596,1051.69 H 213.485"
         id="path384" /><path
         d="m 190.0291,1045.0314 c 1.84238,1.3768 3.88208,2.4773 6.00257,3.3673 3.21922,1.3511 6.62878,2.2276 10.08134,2.743 2.43901,0.364 4.90534,0.5443 7.37204,0.5443"
         style="fill:none;stroke:#ff0000;stroke-width:0.377953;stroke-dasharray:none;stroke-opacity:1"
         id="path386" /><path
         d="m 125.70803,997.98241 c 7.64535,4.99249 15.13043,10.22799 22.51392,15.59539 14.11111,10.2581 27.83124,21.0091 41.80715,31.4536"
         style="fill:none;stroke:#ff0000;stroke-width:0.377953;stroke-dasharray:none;stroke-opacity:1"
         id="path388" /><path
         d="m -0.023922,955.3731 c 11.091962,0 22.184107,1.02064 33.099502,2.99872 15.587491,2.82477 30.792335,7.60651 45.358529,13.83084 13.675072,5.84353 26.793381,12.94151 39.427511,20.78148 2.63492,1.63507 5.24969,3.30257 7.84641,4.99827"
         style="fill:none;stroke:#ff0000;stroke-width:0.377953;stroke-dasharray:none;stroke-opacity:1"
         id="path390" /><path
         d="m -125.75588,997.98241 c 13.87947,-9.0635 28.302112,-17.32814 43.435843,-24.10084 15.133673,-6.77268 30.98045,-12.02568 47.260252,-15.14857 11.539358,-2.21355 23.286116,-3.3599 35.035863,-3.3599"
         style="fill:none;stroke:#ff0000;stroke-width:0.377953;stroke-dasharray:none;stroke-opacity:1"
         id="path392" /><path
         d="m -190.07694,1045.0314 c 14.31401,-10.6972 28.35852,-21.7134 42.82875,-32.1949 7.05182,-5.108 14.19874,-10.0913 21.49231,-14.85409"
         style="fill:none;stroke:#ff0000;stroke-width:0.377953;stroke-dasharray:none;stroke-opacity:1"
         id="path394" /><path
         d="m -213.53289,1051.686 c 4.12926,0 8.26297,-0.4938 12.25738,-1.5409 3.99442,-1.0472 7.89091,-2.6418 11.19857,-5.1137"
         style="fill:none;stroke:#ff0000;stroke-width:0.377953;stroke-dasharray:none;stroke-opacity:1"
         id="path396" /><path
         style="fill:none;stroke:#ff0000;stroke-width:0.377953;stroke-dasharray:none;stroke-opacity:1"
         d="m -251.596,1081.92 h 38.063"
         id="path398" /><path
         d="m -190.07694,1088.5769 c -3.30766,-2.4718 -7.20415,-4.0665 -11.19857,-5.1137 -3.99441,-1.0471 -8.12812,-1.5409 -12.25738,-1.5409"
         style="fill:none;stroke:#ff0000;stroke-width:0.377953;stroke-dasharray:none;stroke-opacity:1"
         id="path400" /><path
         d="m -125.75588,1135.6259 c -7.29357,-4.7628 -14.44049,-9.7461 -21.49231,-14.8541 -14.47023,-10.4815 -28.51474,-21.4977 -42.82875,-32.1949"
         style="fill:none;stroke:#ff0000;stroke-width:0.377953;stroke-dasharray:none;stroke-opacity:1"
         id="path402" /><path
         d="m -0.023922,1178.2352 c -11.749747,0 -23.496505,-1.1463 -35.035863,-3.3599 -16.279802,-3.1229 -32.126579,-8.3759 -47.260252,-15.1486 -15.133731,-6.7727 -29.556373,-15.0373 -43.435843,-24.1008"
         style="fill:none;stroke:#ff0000;stroke-width:0.377953;stroke-dasharray:none;stroke-opacity:1"
         id="path404" /><path
         d="m 125.70803,1135.6259 c -2.59672,1.6957 -5.21149,3.3632 -7.84641,4.9983 -12.63413,7.8399 -25.752439,14.9379 -39.427511,20.7815 -14.566194,6.2243 -29.771038,11.006 -45.358529,13.8308 -10.915395,1.9781 -22.00754,2.9987 -33.099502,2.9987"
         style="fill:none;stroke:#ff0000;stroke-width:0.377953;stroke-dasharray:none;stroke-opacity:1"
         id="path406" /><path
         d="m 190.0291,1088.5769 c -13.97591,10.4445 -27.69604,21.1955 -41.80715,31.4536 -7.38349,5.3674 -14.86857,10.6029 -22.51392,15.5954"
         style="fill:none;stroke:#ff0000;stroke-width:0.377953;stroke-dasharray:none;stroke-opacity:1"
         id="path408" /><path
         d="m 213.48505,1081.9223 c -2.4667,0 -4.93303,0.1803 -7.37204,0.5444 -3.45256,0.5153 -6.86212,1.3918 -10.08134,2.7429 -2.12049,0.89 -4.16019,1.9905 -6.00257,3.3673"
         style="fill:none;stroke:#ff0000;stroke-width:0.377953;stroke-dasharray:none;stroke-opacity:1"
         id="path410" /><path
         style="fill:none;stroke:#ff0000;stroke-width:0.377953;stroke-dasharray:none;stroke-opacity:1"
         d="m 213.485,1081.92 h 38.111"
         id="path412" /><path
         style="fill:none;stroke:#ff0000;stroke-width:0.377953;stroke-dasharray:none;stroke-opacity:1"
         d="M 251.596,1081.92 V 1066.8"
         id="path414" /><path
         style="fill:none;stroke:#ff0000;stroke-width:0.377953;stroke-dasharray:none;stroke-opacity:1"
         d="m -251.596,1066.8 v 15.12"
         id="path418" /><path
         d="m -18.92156,1066.8042 a 30.236221,30.236221 0 0 0 -60.472441,0 30.236221,30.236221 0 0 0 60.472441,0 z"
         style="fill:none;stroke:#ff0000;stroke-width:0.377953;stroke-dasharray:none;stroke-opacity:1"
         id="path424" /><path
         d="m 79.346157,1066.8042 a 30.236221,30.236221 0 0 0 -60.472441,0 30.236221,30.236221 0 0 0 60.472441,0 z"
         style="fill:none;stroke:#ff0000;stroke-width:0.377953;stroke-dasharray:none;stroke-opacity:1"
         id="path426" /><path
         d="m 119.97608,1085.7018 a 6.614175,6.614175 0 0 0 -13.22835,0 6.614175,6.614175 0 0 0 13.22835,0 z"
         style="fill:none;stroke:#ff0000;stroke-width:0.377953;stroke-dasharray:none;stroke-opacity:1"
         id="path428" /><path
         d="m -106.79558,1085.7018 a 6.6141735,6.6141735 0 0 0 -13.22834,0 6.6141735,6.6141735 0 0 0 13.22834,0 z"
         style="fill:none;stroke:#ff0000;stroke-width:0.377953;stroke-dasharray:none;stroke-opacity:1"
         id="path430" /></g><circle
       style="fill:none;stroke:#ff0000;stroke-width:0.1;stroke-dasharray:none;stroke-opacity:1"
       id="path623"
       cx="398.82162"
       cy="105.21403"
       r="13.968837" /><circle
       style="fill:none;stroke:#ff0000;stroke-width:0.1;stroke-dasharray:none;stroke-opacity:1"
       id="path1326"
       cx="398.82162"
       cy="105.21403"
       r="1.9690224" /><circle
       style="fill:none;stroke:#ff0000;stroke-width:0.1;stroke-dasharray:none;stroke-opacity:1"
       id="path623-8"
       cx="432.80911"
       cy="105.21403"
       r="13.968837" /><circle
       style="fill:none;stroke:#ff0000;stroke-width:0.1;stroke-dasharray:none;stroke-opacity:1"
       id="path1326-3"
       cx="432.80911"
       cy="105.21403"
       r="1.9690224" /><circle
       style="fill:none;stroke:#ff0000;stroke-width:0.1;stroke-dasharray:none;stroke-opacity:1"
       id="path623-0"
       cx="398.6994"
       cy="138.8856"
       r="13.968837" /><circle
       style="fill:none;stroke:#ff0000;stroke-width:0.1;stroke-dasharray:none;stroke-opacity:1"
       id="path1326-6"
       cx="398.6994"
       cy="138.8856"
       r="1.9690224" /><circle
       style="fill:none;stroke:#ff0000;stroke-width:0.1;stroke-dasharray:none;stroke-opacity:1"
       id="path623-8-2"
       cx="432.68689"
       cy="138.8856"
       r="13.968837" /><circle
       style="fill:none;stroke:#ff0000;stroke-width:0.1;stroke-dasharray:none;stroke-opacity:1"
       id="path1326-3-2"
       cx="432.68689"
       cy="138.8856"
       r="1.9690224" /><circle
       style="fill:none;stroke:#ff0000;stroke-width:0.1;stroke-dasharray:none;stroke-opacity:1"
       id="path623-5"
       cx="398.34305"
       cy="172.14528"
       r="13.968837" /><circle
       style="fill:none;stroke:#ff0000;stroke-width:0.1;stroke-dasharray:none;stroke-opacity:1"
       id="path1326-2"
       cx="398.34305"
       cy="172.14528"
       r="1.9690224" /><circle
       style="fill:none;stroke:#ff0000;stroke-width:0.1;stroke-dasharray:none;stroke-opacity:1"
       id="path623-8-27"
       cx="432.33054"
       cy="172.14528"
       r="13.968837" /><circle
       style="fill:none;stroke:#ff0000;stroke-width:0.1;stroke-dasharray:none;stroke-opacity:1"
       id="path1326-3-1"
       cx="432.33054"
       cy="172.14528"
       r="1.9690224" /><circle
       style="fill:none;stroke:#ff0000;stroke-width:0.1;stroke-dasharray:none;stroke-opacity:1"
       id="path623-8-8"
       cx="466.4454"
       cy="105.41997"
       r="13.968837" /><circle
       style="fill:none;stroke:#ff0000;stroke-width:0.1;stroke-dasharray:none;stroke-opacity:1"
       id="path1326-3-7"
       cx="466.4454"
       cy="105.41997"
       r="1.9690224" /><circle
       style="fill:none;stroke:#ff0000;stroke-width:0.1;stroke-dasharray:none;stroke-opacity:1"
       id="path623-8-2-6"
       cx="466.32318"
       cy="139.09154"
       r="13.968837" /><circle
       style="fill:none;stroke:#ff0000;stroke-width:0.1;stroke-dasharray:none;stroke-opacity:1"
       id="path1326-3-2-0"
       cx="466.32318"
       cy="139.09154"
       r="1.9690224" /><circle
       style="fill:none;stroke:#ff0000;stroke-width:0.1;stroke-dasharray:none;stroke-opacity:1"
       id="path623-8-27-0"
       cx="465.96683"
       cy="172.35121"
       r="13.968837" /><circle
       style="fill:none;stroke:#ff0000;stroke-width:0.1;stroke-dasharray:none;stroke-opacity:1"
       id="path1326-3-1-9"
       cx="465.96683"
       cy="172.35121"
       r="1.9690224" /></g></svg>
